<?xml version="1.0" encoding="UTF-8" standalone="no"?>
<!DOCTYPE svg PUBLIC "-//W3C//DTD SVG 1.1//EN" "http://www.w3.org/Graphics/SVG/1.1/DTD/svg11.dtd">
<svg version="1.1" xmlns="http://www.w3.org/2000/svg" xmlns:xlink="http://www.w3.org/1999/xlink" preserveAspectRatio="xMidYMid meet" viewBox="0 0 640 640" width="640" height="640"><defs><path d="M507 408C507 504.59 428.59 583 332 583C235.41 583 157 504.59 157 408C157 311.41 235.41 233 332 233C428.59 233 507 311.41 507 408Z" id="c2Ki07MvYo"></path><path d="M400 241.44C400 225.63 400 215.75 400 211.79C400 194.92 386.33 181.25 369.46 181.25C346.56 181.25 307.42 181.25 284.28 181.25C268.18 181.25 255.2 194.44 255.46 210.54C255.52 214.76 255.69 225.29 255.96 242.14" id="b2ugrl3Ft"></path><linearGradient id="gradienta43GDDR6ZL" gradientUnits="userSpaceOnUse" x1="327.72" y1="181.25" x2="327.72" y2="242.14"><stop style="stop-color: #ffc107;stop-opacity: 1" offset="0%"></stop><stop style="stop-color: #e91e63;stop-opacity: 1" offset="100%"></stop></linearGradient><path d="" id="a5nBpSH19y"></path><path d="M352 182.25L352 113.36C332.12 113.36 319.7 113.36 314.73 113.36C307.7 113.36 302 119.06 302 126.09C302 133.58 302 152.3 302 182.25" id="a10LzU4Kb8"></path><path d="M245 153.75L300 153.75" id="a4Dffe2Ss"></path><path d="M252.25 153.75C252.25 172.38 228.84 187.5 200 187.5C171.16 187.5 147.75 172.38 147.75 153.75C147.75 135.12 171.16 120 200 120C228.84 120 252.25 135.12 252.25 153.75Z" id="bvZiCrx0"></path><path d="M307.06 548.33C256.06 548.33 184.56 482.67 183.56 410.67" id="d6lYTI3NHV"></path><path d="M193.5 411.15C193.5 416.67 189.02 421.15 183.5 421.15C177.98 421.15 173.5 416.67 173.5 411.15C173.5 405.63 177.98 401.15 183.5 401.15C189.02 401.15 193.5 405.63 193.5 411.15Z" id="gZrbGccBr"></path><path d="M317.02 548.33C317.02 553.85 312.54 558.33 307.02 558.33C301.5 558.33 297.02 553.85 297.02 548.33C297.02 542.81 301.5 538.33 307.02 538.33C312.54 538.33 317.02 542.81 317.02 548.33Z" id="bZkOC5rvC"></path><path d="M582.51 62.27C559.43 131.89 491.92 164.47 380 160" id="d4oeN1Dr9F"></path><path d="M553.51 21.5C536.43 91.12 478.59 125.86 380 125.73" id="b1GiVm8jb"></path><path d="M568.83 43.5C545.08 111.12 482.14 144.53 380 143.73" id="cDDpi7osb"></path><path d="M189.08 312.12L210.21 357.56L247.08 369.5L261.08 391.44L297.08 398.5L322.2 389.97L406.08 422.5C406.92 415.33 406.58 409.67 405.08 405.5C403.58 401.33 417.53 395.67 446.92 388.5L444.92 350.94L472.92 333.94L413.61 327.12L367.61 342.5C346.61 366.48 332.95 380.68 326.61 385.12C320.28 389.56 314.28 370.89 308.61 329.12L346.66 341.94L400.61 360.12L430.61 287.12L353.61 302.5L324.61 247.12L315.57 289.69L293.61 358.12L277.08 395.12" id="cMWUSGYtC"></path><path d="M244.61 370.12L242.61 275.12L297.08 326.12L216.4 352.7L212.08 354.12" id="b3yyviQMs"></path><path d="M380 248.12L353.61 302.5L413.61 329.12L442.61 352.12L402.61 362.5L403.61 399.12" id="f2Ts4Tal3K"></path><path d="M210.75 339.83C219.03 339.83 225.75 346.55 225.75 354.83C225.75 363.11 219.03 369.83 210.75 369.83C202.47 369.83 195.75 363.11 195.75 354.83C195.75 346.55 202.47 339.83 210.75 339.83Z" id="b1q5Y3mAVg"></path><path d="M272.75 382.5C281.03 382.5 287.75 389.22 287.75 397.5C287.75 405.78 281.03 412.5 272.75 412.5C264.47 412.5 257.75 405.78 257.75 397.5C257.75 389.22 264.47 382.5 272.75 382.5Z" id="b1yUGyJvXB"></path><path d="M245.08 357.5C253.36 357.5 260.08 364.22 260.08 372.5C260.08 380.78 253.36 387.5 245.08 387.5C236.8 387.5 230.08 380.78 230.08 372.5C230.08 364.22 236.8 357.5 245.08 357.5Z" id="f1WgjUKDjS"></path><path d="M302.08 312.5C310.36 312.5 317.08 319.22 317.08 327.5C317.08 335.78 310.36 342.5 302.08 342.5C293.8 342.5 287.08 335.78 287.08 327.5C287.08 319.22 293.8 312.5 302.08 312.5Z" id="hhjItx6N"></path><path d="M323.75 376.33C332.03 376.33 338.75 383.05 338.75 391.33C338.75 399.61 332.03 406.33 323.75 406.33C315.47 406.33 308.75 399.61 308.75 391.33C308.75 383.05 315.47 376.33 323.75 376.33Z" id="bJXE3PtIu"></path><path d="M407.08 412.5C415.36 412.5 422.08 419.22 422.08 427.5C422.08 435.78 415.36 442.5 407.08 442.5C398.8 442.5 392.08 435.78 392.08 427.5C392.08 419.22 398.8 412.5 407.08 412.5Z" id="a1ejBw7Svj"></path><path d="M402.08 382.5C410.36 382.5 417.08 389.22 417.08 397.5C417.08 405.78 410.36 412.5 402.08 412.5C393.8 412.5 387.08 405.78 387.08 397.5C387.08 389.22 393.8 382.5 402.08 382.5Z" id="o1nZY8jRcR"></path><path d="M449.25 372.5C457.53 372.5 464.25 379.22 464.25 387.5C464.25 395.78 457.53 402.5 449.25 402.5C440.97 402.5 434.25 395.78 434.25 387.5C434.25 379.22 440.97 372.5 449.25 372.5Z" id="c4dewN06eL"></path><path d="M443.25 337.5C451.53 337.5 458.25 344.22 458.25 352.5C458.25 360.78 451.53 367.5 443.25 367.5C434.97 367.5 428.25 360.78 428.25 352.5C428.25 344.22 434.97 337.5 443.25 337.5Z" id="a1tSK0rs6"></path><path d="M367.08 327.5C375.36 327.5 382.08 334.22 382.08 342.5C382.08 350.78 375.36 357.5 367.08 357.5C358.8 357.5 352.08 350.78 352.08 342.5C352.08 334.22 358.8 327.5 367.08 327.5Z" id="avD9giAc2"></path><path d="M497 330C497 338.28 490.28 345 482 345C473.72 345 467 338.28 467 330C467 321.72 473.72 315 482 315C490.28 315 497 321.72 497 330Z" id="b4qVl7xPx"></path><path d="M428.25 272.5C436.53 272.5 443.25 279.22 443.25 287.5C443.25 295.78 436.53 302.5 428.25 302.5C419.97 302.5 413.25 295.78 413.25 287.5C413.25 279.22 419.97 272.5 428.25 272.5Z" id="aehgGfD6S"></path><path d="M350.25 291.33C358.53 291.33 365.25 298.05 365.25 306.33C365.25 314.61 358.53 321.33 350.25 321.33C341.97 321.33 335.25 314.61 335.25 306.33C335.25 298.05 341.97 291.33 350.25 291.33Z" id="aKzmbRllv"></path><path d="M327.08 237.5C335.36 237.5 342.08 244.22 342.08 252.5C342.08 260.78 335.36 267.5 327.08 267.5C318.8 267.5 312.08 260.78 312.08 252.5C312.08 244.22 318.8 237.5 327.08 237.5Z" id="h1p36XhM5l"></path><path d="M197.08 302.5C205.36 302.5 212.08 309.22 212.08 317.5C212.08 325.78 205.36 332.5 197.08 332.5C188.8 332.5 182.08 325.78 182.08 317.5C182.08 309.22 188.8 302.5 197.08 302.5Z" id="bhlPAdTvZ"></path><path d="M245.25 263.83C253.53 263.83 260.25 270.55 260.25 278.83C260.25 287.11 253.53 293.83 245.25 293.83C236.97 293.83 230.25 287.11 230.25 278.83C230.25 270.55 236.97 263.83 245.25 263.83Z" id="ac76LVJMD"></path></defs><g><g><g><g><use xlink:href="#c2Ki07MvYo" opacity="1" fill-opacity="0" stroke="#e91e63" stroke-width="20" stroke-opacity="1"></use></g></g><g><use xlink:href="#b2ugrl3Ft" opacity="1" fill="url(#gradienta43GDDR6ZL)"></use></g><g><g><use xlink:href="#a5nBpSH19y" opacity="1" fill-opacity="0" stroke="#0c14a5" stroke-width="2" stroke-opacity="1"></use></g></g><g><g><use xlink:href="#a10LzU4Kb8" opacity="1" fill-opacity="0" stroke="#ffc107" stroke-width="20" stroke-opacity="1"></use></g></g><g><g><use xlink:href="#a4Dffe2Ss" opacity="1" fill-opacity="0" stroke="#ffc107" stroke-width="20" stroke-opacity="1"></use></g></g><g><use xlink:href="#bvZiCrx0" opacity="1" fill="#ffc107" fill-opacity="1"></use></g><g><g><use xlink:href="#d6lYTI3NHV" opacity="1" fill-opacity="0" stroke="#e91e63" stroke-width="20" stroke-opacity="1"></use></g></g><g><use xlink:href="#gZrbGccBr" opacity="1" fill="#e91e63" fill-opacity="1"></use></g><g><use xlink:href="#bZkOC5rvC" opacity="1" fill="#e91e63" fill-opacity="1"></use></g><g><g><use xlink:href="#d4oeN1Dr9F" opacity="1" fill-opacity="0" stroke="#ffc107" stroke-width="10" stroke-opacity="1"></use></g></g><g><g><use xlink:href="#b1GiVm8jb" opacity="1" fill-opacity="0" stroke="#ffc107" stroke-width="10" stroke-opacity="1"></use></g></g><g><g><use xlink:href="#cDDpi7osb" opacity="1" fill-opacity="0" stroke="#ffc107" stroke-width="10" stroke-opacity="1"></use></g></g><g><g><use xlink:href="#cMWUSGYtC" opacity="1" fill-opacity="0" stroke="#e91e63" stroke-width="10" stroke-opacity="1"></use></g></g><g><g><use xlink:href="#b3yyviQMs" opacity="1" fill-opacity="0" stroke="#e91e63" stroke-width="10" stroke-opacity="1"></use></g></g><g><g><use xlink:href="#f2Ts4Tal3K" opacity="1" fill-opacity="0" stroke="#e91e63" stroke-width="10" stroke-opacity="1"></use></g></g><g><use xlink:href="#b1q5Y3mAVg" opacity="1" fill="#e91e63" fill-opacity="1"></use></g><g><use xlink:href="#b1yUGyJvXB" opacity="1" fill="#e91e63" fill-opacity="1"></use></g><g><use xlink:href="#f1WgjUKDjS" opacity="1" fill="#e91e63" fill-opacity="1"></use></g><g><use xlink:href="#hhjItx6N" opacity="1" fill="#e91e63" fill-opacity="1"></use></g><g><use xlink:href="#bJXE3PtIu" opacity="1" fill="#e91e63" fill-opacity="1"></use></g><g><use xlink:href="#a1ejBw7Svj" opacity="1" fill="#e91e63" fill-opacity="1"></use></g><g><use xlink:href="#o1nZY8jRcR" opacity="1" fill="#e91e63" fill-opacity="1"></use></g><g><use xlink:href="#c4dewN06eL" opacity="1" fill="#e91e63" fill-opacity="1"></use></g><g><use xlink:href="#a1tSK0rs6" opacity="1" fill="#e91e63" fill-opacity="1"></use></g><g><use xlink:href="#avD9giAc2" opacity="1" fill="#e91e63" fill-opacity="1"></use></g><g><use xlink:href="#b4qVl7xPx" opacity="1" fill="#e91e63" fill-opacity="1"></use></g><g><use xlink:href="#aehgGfD6S" opacity="1" fill="#e91e63" fill-opacity="1"></use></g><g><use xlink:href="#aKzmbRllv" opacity="1" fill="#e91e63" fill-opacity="1"></use></g><g><use xlink:href="#h1p36XhM5l" opacity="1" fill="#e91e63" fill-opacity="1"></use></g><g><use xlink:href="#bhlPAdTvZ" opacity="1" fill="#e91e63" fill-opacity="1"></use></g><g><use xlink:href="#ac76LVJMD" opacity="1" fill="#e91e63" fill-opacity="1"></use></g></g></g></svg>